# xmcd
#
# Track frame offsets:
#	150
#	16900
#	32425
#	46750
#	61130
#	77645
#	93780
#	108498
#	119853
#	138075
#	157680
#	170490
#	190225
#	206073
#	221323
#	233140
#
# Disc length: 3283 seconds
#
# Revision: 1
# Processed by: cddbd v1.5.2PL0 Copyright (c) Steve Scherf et al.
# Submitted via: EZCDAudioConverter 6.0.2.1
#
DISCID=c50cd110
DTITLE=Various Artist - Old Style Love Song 17
DYEAR=1900
DGENRE=Other
TTITLE0=Gilbert O'Sullivan - Alone Again (Naturally)
TTITLE1=Helen Reddy - I Am Woman
TTITLE2=Bread - Everything I Own
TTITLE3=Bee Gees - Run to Me
TTITLE4=Lobo - Don't Expect Me to Be Your Friend
TTITLE5=Chi-Lites - Oh Girl
TTITLE6=Mac Davis - Baby Don't Get Hooked On Me
TTITLE7=Donna Fargo - The Happiest Girl in the Whole USA
TTITLE8=Don McLean - Vincent
TTITLE9=Don McLean - And I Love You So
TTITLE10=Stevie Wonder - You Are the Sunshine of My Life
TTITLE11=Carly Simon - You Are So Vain
TTITLE12=Diana Ross - Touch Me in the Morning
TTITLE13=Carpenters - Sing
TTITLE14=Charlie Rich - The Most Beatiful Girl
TTITLE15=Charlie Rich - Behind Closed Doors
EXTD=
EXTT0=
EXTT1=
EXTT2=
EXTT3=
EXTT4=
EXTT5=
EXTT6=
EXTT7=
EXTT8=
EXTT9=
EXTT10=
EXTT11=
EXTT12=
EXTT13=
EXTT14=
EXTT15=
PLAYORDER=
